<svg width="141" height="143" viewBox="0 0 141 143" fill="none" xmlns="http://www.w3.org/2000/svg">
<path d="M99.873 9C117.616 9 132 23.3838 132 41.127V101.709C132 119.452 117.616 133.836 99.873 133.836H41.127C23.3838 133.836 9.00002 119.452 9 101.709V41.127C9 23.3838 23.3838 9 41.127 9H99.873ZM53.0625 96.7129L64.9561 102.318L56.6387 119.969L87.9395 91.4639L76.0449 85.8584L84.3633 68.209L53.0625 96.7129ZM43.2275 24.6035C34.9686 24.6036 28.2734 31.59 28.2734 40.208C28.2734 48.826 34.9686 55.8124 43.2275 55.8125H97.7666C106.026 55.8125 112.722 48.8261 112.722 40.208C112.722 31.5899 106.026 24.6035 97.7666 24.6035H43.2275ZM97.7666 29.1934C103.596 29.1934 108.323 34.1246 108.323 40.208C108.323 46.2914 103.596 51.2227 97.7666 51.2227H43.2275C37.3977 51.2225 32.6719 46.2913 32.6719 40.208C32.6719 34.1247 37.3977 29.1935 43.2275 29.1934H97.7666ZM46.9053 33.7832C42.7013 33.7832 39.293 36.6604 39.293 40.209C39.2932 43.7574 42.7015 46.6338 46.9053 46.6338H94.0986C98.3024 46.6338 101.711 43.7574 101.711 40.209C101.711 36.6604 98.3026 33.7832 94.0986 33.7832H46.9053Z" fill="black"/>
</svg>
